<?xml version="1.0" encoding="utf-8"?>
<!-- Generator: Adobe Illustrator 22.1.0, SVG Export Plug-In . SVG Version: 6.00 Build 0)  -->
<svg version="1.1" xmlns="http://www.w3.org/2000/svg" xmlns:xlink="http://www.w3.org/1999/xlink" x="0px" y="0px"
	 viewBox="0 0 102 39.7" style="enable-background:new 0 0 102 39.7;" xml:space="preserve">
<style type="text/css">
	.st0{opacity:0.8;fill:#D98B18;}
	.st1{opacity:0.65;fill:#D98B18;}
	.st2{opacity:0.57;fill:#FFFFFF;}
	.st3{clip-path:url(#SVGID_6_);}
	.st4{opacity:0.85;fill:#42061C;}
	.st5{clip-path:url(#SVGID_10_);}
	.st6{fill:#7F1430;}
	.st7{clip-path:url(#SVGID_18_);}
	.st8{clip-path:url(#SVGID_22_);}
	.st9{fill:#D98B18;}
	.st10{fill:none;stroke:#7F1430;stroke-miterlimit:10;}
	.st11{opacity:0.65;}
	.st12{fill:#7F1430;stroke:#FFFFFF;stroke-miterlimit:10;}
	.st13{fill:#C7810B;}
	.st14{fill:#FFFFFF;}
	.st15{fill:none;stroke:#C7810B;stroke-miterlimit:10;}
	.st16{fill:none;stroke:#FFFFFF;stroke-width:2.7;stroke-linecap:round;stroke-linejoin:round;stroke-miterlimit:10;}
	.st17{fill:none;stroke:#7F1430;stroke-width:2.7;stroke-linecap:round;stroke-linejoin:round;stroke-miterlimit:10;}
	.st18{clip-path:url(#SVGID_40_);}
	.st19{clip-path:url(#SVGID_48_);}
	.st20{clip-path:url(#SVGID_52_);}
	.st21{opacity:0.39;fill:#C8820B;}
	.st22{fill:none;stroke:#000000;stroke-miterlimit:10;}
	.st23{opacity:0.9;fill:#7F1430;}
	.st24{opacity:0.9;}
	.st25{fill:#7F1430;stroke:#7F1430;stroke-width:0.5;stroke-miterlimit:10;}
	.st26{fill:none;stroke:#7F1430;stroke-width:2;stroke-miterlimit:10;}
	.st27{clip-path:url(#SVGID_70_);}
	.st28{fill:#560820;}
	.st29{fill:none;stroke:#D98B18;stroke-width:0.25;stroke-miterlimit:10;}
	.st30{clip-path:url(#SVGID_74_);}
	.st31{opacity:0.17;fill:#7F1430;}
	.st32{clip-path:url(#SVGID_78_);}
	.st33{clip-path:url(#SVGID_82_);}
	.st34{clip-path:url(#SVGID_84_);}
	.st35{clip-path:url(#SVGID_86_);}
	.st36{fill:none;stroke:#D98B18;stroke-miterlimit:10;}
	.st37{clip-path:url(#SVGID_88_);}
	.st38{clip-path:url(#SVGID_92_);}
	.st39{clip-path:url(#SVGID_94_);}
	.st40{fill:none;stroke:#7F1430;stroke-width:2.6;stroke-miterlimit:10;}
	.st41{opacity:0.7;fill:#C8820B;}
	.st42{display:none;}
	.st43{display:inline;opacity:0.5;fill:#CC0000;}
	.st44{display:inline;fill:#7F1430;}
	.st45{display:inline;fill:#560820;}
	.st46{display:inline;}
	.st47{display:inline;fill:none;stroke:#C7810B;stroke-miterlimit:10;}
	.st48{display:inline;fill:none;stroke:#D98B18;stroke-width:0.25;stroke-miterlimit:10;}
	.st49{clip-path:url(#SVGID_114_);}
	.st50{opacity:0.58;clip-path:url(#SVGID_114_);fill:#D39436;}
	.st51{display:inline;opacity:0.85;fill:#42061C;}
	.st52{clip-path:url(#SVGID_120_);}
	.st53{clip-path:url(#SVGID_122_);}
	.st54{filter:url(#Adobe_OpacityMaskFilter);}
	.st55{clip-path:url(#SVGID_126_);}
	.st56{clip-path:url(#SVGID_128_);}
	.st57{filter:url(#Adobe_OpacityMaskFilter_1_);}
	.st58{clip-path:url(#SVGID_132_);}
	.st59{filter:url(#Adobe_OpacityMaskFilter_2_);}
	.st60{clip-path:url(#SVGID_136_);}
	.st61{filter:url(#Adobe_OpacityMaskFilter_3_);}
</style>
<g id="Capa_7">
</g>
<g id="Capa_1">
	<g>
		<path class="st6" d="M95.4,0H6.6C3,0,0,3,0,6.6V23c0,3.7,3,6.6,6.6,6.6h35.7c0,0.1,0.1,0.1,0.1,0.2c1.8,2.2,3.7,4.4,5.6,6.6
			c0.9,1.1,1.9,2.1,2.9,3.2c0.1-0.1,0.1-0.1,0.2-0.2c2.1-2.4,4.3-4.9,6.4-7.3c0.7-0.8,1.4-1.7,2-2.5h35.8c3.7,0,6.6-3,6.6-6.6V6.6
			C102,3,99,0,95.4,0z"/>
		<g>
			<path class="st9" d="M23.1,19.3c-0.8-0.3-1.4-0.9-2-1.6c-0.6-0.7-0.9-1.7-0.9-2.9c0-1,0.2-1.9,0.7-2.6c0.5-0.8,1.1-1.3,1.9-1.8
				c0.8-0.4,1.7-0.6,2.6-0.6c0.9,0,1.7,0.2,2.4,0.6c0.7,0.4,1.4,0.9,1.8,1.6c0.3,0.5,0.5,0.9,0.6,1.4c0.1,0.4,0.1,1,0.1,1.6
				c0,0.2-0.1,0.4-0.2,0.6c-0.1,0.2-0.3,0.2-0.5,0.2h-6.9c0.1,0.6,0.4,1,1,1.3c0.5,0.3,1.1,0.4,1.7,0.4c0.5,0,0.9-0.1,1.2-0.2
				c0.3-0.1,0.6-0.3,0.9-0.6c0.2-0.1,0.3-0.2,0.4-0.2c0.1,0,0.2,0,0.3,0.1l1.1,0.7c0.2,0.1,0.3,0.2,0.3,0.4c0,0.1,0,0.2-0.1,0.3
				c-1.1,1.2-2.4,1.8-4.1,1.8C24.7,19.8,23.9,19.7,23.1,19.3z M23.7,12.7C23.3,13,23,13.4,22.9,14h4.8c0-0.3-0.2-0.6-0.3-0.9
				c-0.2-0.3-0.5-0.5-0.8-0.7c-0.3-0.2-0.7-0.3-1.1-0.3C24.8,12.1,24.2,12.3,23.7,12.7z"/>
			<path class="st9" d="M32.8,19.5c-0.1-0.1-0.1-0.2-0.1-0.4V6.9c0-0.2,0-0.3,0.1-0.4c0.1-0.1,0.2-0.1,0.4-0.1h1.6
				c0.2,0,0.3,0,0.4,0.1c0.1,0.1,0.1,0.2,0.1,0.4v12.1c0,0.2,0,0.3-0.1,0.4c-0.1,0.1-0.2,0.1-0.4,0.1h-1.6
				C33,19.6,32.8,19.5,32.8,19.5z"/>
			<path class="st9" d="M47.4,10.1c0.1,0.1,0.1,0.2,0.1,0.4v8.2c0,1.4-0.4,2.5-1.3,3.3c-0.9,0.8-2,1.2-3.6,1.2c-1.6,0-3-0.4-4.2-1.2
				c-0.2-0.1-0.2-0.2-0.2-0.4c0-0.1,0-0.2,0.1-0.3l0.7-1c0.1-0.2,0.3-0.2,0.4-0.2c0.1,0,0.2,0,0.3,0.1c0.4,0.2,0.8,0.4,1.3,0.6
				S42,21,42.5,21c1.6,0,2.5-0.7,2.5-2.2v-0.2c-0.7,0.6-1.6,0.9-2.7,0.9c-1,0-1.9-0.2-2.6-0.6c-0.8-0.4-1.4-1-1.8-1.7
				c-0.4-0.7-0.6-1.6-0.6-2.4c0-0.9,0.2-1.7,0.6-2.4c0.4-0.7,1-1.3,1.8-1.7c0.7-0.4,1.6-0.6,2.7-0.6c1.1,0,2,0.3,2.7,0.9v-0.2
				c0-0.2,0-0.3,0.1-0.4c0.1-0.1,0.2-0.1,0.4-0.1H47C47.2,10,47.3,10.1,47.4,10.1z M43.8,16.9c0.4-0.2,0.7-0.5,0.9-1
				s0.3-0.8,0.3-1.3c0-0.5-0.1-0.9-0.3-1.3c-0.2-0.4-0.5-0.7-1-0.9C43.4,12.2,43,12,42.5,12c-0.8,0-1.4,0.2-1.9,0.7
				c-0.5,0.5-0.7,1.1-0.7,1.9c0,0.8,0.2,1.4,0.7,1.9c0.5,0.5,1.1,0.7,1.9,0.7C42.9,17.2,43.4,17.1,43.8,16.9z"/>
			<path class="st9" d="M52.5,19.3c-0.8-0.3-1.4-0.9-2-1.6C50,17,49.7,16,49.7,14.8c0-1,0.2-1.9,0.7-2.6c0.5-0.8,1.1-1.3,1.9-1.8
				c0.8-0.4,1.7-0.6,2.6-0.6c0.9,0,1.7,0.2,2.4,0.6c0.7,0.4,1.4,0.9,1.8,1.6c0.3,0.5,0.5,0.9,0.6,1.4c0.1,0.4,0.1,1,0.1,1.6
				c0,0.2-0.1,0.4-0.2,0.6c-0.1,0.2-0.3,0.2-0.5,0.2h-6.9c0.1,0.6,0.4,1,1,1.3c0.5,0.3,1.1,0.4,1.7,0.4c0.5,0,0.9-0.1,1.2-0.2
				c0.3-0.1,0.6-0.3,0.9-0.6c0.2-0.1,0.3-0.2,0.4-0.2c0.1,0,0.2,0,0.3,0.1l1.1,0.7c0.2,0.1,0.3,0.2,0.3,0.4c0,0.1,0,0.2-0.1,0.3
				c-1.1,1.2-2.4,1.8-4.1,1.8C54.1,19.8,53.3,19.7,52.5,19.3z M53.1,12.7c-0.5,0.3-0.7,0.8-0.8,1.3h4.8c0-0.3-0.2-0.6-0.3-0.9
				c-0.2-0.3-0.5-0.5-0.8-0.7c-0.3-0.2-0.7-0.3-1.1-0.3C54.2,12.1,53.6,12.3,53.1,12.7z"/>
			<path class="st9" d="M62,12.3c-0.2,0-0.3,0-0.4-0.1c-0.1-0.1-0.1-0.2-0.1-0.4v-1.2c0-0.2,0-0.3,0.1-0.4c0.1-0.1,0.2-0.1,0.4-0.1
				h7.9c0.1,0,0.2,0,0.2,0.1c0.1,0.1,0.1,0.1,0.1,0.2c0,0.1,0,0.2-0.1,0.3l-4.8,6.7h4.2c0.2,0,0.3,0,0.4,0.1
				c0.1,0.1,0.1,0.2,0.1,0.4v1.2c0,0.2,0,0.3-0.1,0.4c-0.1,0.1-0.2,0.1-0.4,0.1h-8.1c-0.1,0-0.2,0-0.3-0.1s-0.1-0.1-0.1-0.2
				c0-0.1,0-0.2,0.1-0.3l4.8-6.7H62z"/>
			<path class="st9" d="M79.3,19.5c-0.1-0.1-0.1-0.2-0.1-0.4v-0.4c-0.2,0.3-0.6,0.6-1.2,0.8c-0.5,0.2-1.1,0.3-1.7,0.3
				c-1,0-1.8-0.2-2.6-0.7c-0.7-0.4-1.3-1-1.7-1.8c-0.4-0.8-0.6-1.6-0.6-2.5c0-0.9,0.2-1.8,0.6-2.5c0.4-0.8,0.9-1.4,1.7-1.8
				c0.7-0.4,1.6-0.7,2.6-0.7c0.6,0,1.2,0.1,1.7,0.3c0.5,0.2,0.9,0.5,1.2,0.9v-0.5c0-0.2,0-0.3,0.1-0.4c0.1-0.1,0.2-0.1,0.4-0.1h1.5
				c0.2,0,0.3,0,0.4,0.1c0.1,0.1,0.1,0.2,0.1,0.4v8.5c0,0.2,0,0.3-0.1,0.4c-0.1,0.1-0.2,0.1-0.4,0.1h-1.5
				C79.5,19.6,79.4,19.5,79.3,19.5z M78.5,12.8c-0.5-0.5-1.1-0.7-1.9-0.7c-0.8,0-1.4,0.3-1.9,0.7c-0.5,0.5-0.7,1.2-0.7,2
				c0,0.8,0.2,1.4,0.7,1.9c0.5,0.5,1.1,0.8,1.9,0.8c0.8,0,1.5-0.2,1.9-0.7c0.5-0.5,0.7-1.1,0.7-2C79.2,14,79,13.3,78.5,12.8z"/>
		</g>
	</g>
</g>
<g id="Bootstrap" class="st42">
</g>
<g id="Capa_9">
</g>
<g id="Capa_5" class="st42">
</g>
<g id="Capa_6">
</g>
<g id="Capa_3" class="st42">
</g>
<g id="Capa_2" class="st42">
</g>
<g id="Capa_4">
</g>
</svg>
